<?xml version="1.0" standalone="no"?>
<!DOCTYPE svg PUBLIC "-//W3C//DTD SVG 20010904//EN"
 "http://www.w3.org/TR/2001/REC-SVG-20010904/DTD/svg10.dtd">
<svg version="1.0" xmlns="http://www.w3.org/2000/svg"
 width="100.000000pt" height="118.000000pt" viewBox="0 0 100.000000 118.000000"
 preserveAspectRatio="xMidYMid meet">

<g transform="translate(0.000000,118.000000) scale(0.100000,-0.100000)"
fill="#000000" stroke="none">
<path d="M0 590 l0 -590 500 0 500 0 0 590 0 590 -500 0 -500 0 0 -590z m397
528 c34 -39 61 -83 68 -111 6 -24 4 -27 -18 -27 -25 0 -67 44 -67 69 0 6 -5
11 -11 11 -6 0 -8 -8 -5 -17 2 -10 7 -28 11 -40 10 -37 -3 -63 -32 -63 l-26 0
8 92 c4 51 9 96 12 100 9 15 40 8 60 -14z m356 -12 c3 -8 0 -17 -8 -20 -14 -5
-28 17 -18 28 10 10 21 7 26 -8z m-98 -6 c3 -5 -1 -10 -9 -10 -9 0 -16 5 -16
10 0 6 4 10 9 10 6 0 13 -4 16 -10z m35 -30 c0 -5 -4 -10 -9 -10 -6 0 -13 5
-16 10 -3 6 1 10 9 10 9 0 16 -4 16 -10z m236 -15 c3 -14 -2 -57 -11 -95 -18
-72 -38 -97 -66 -80 -12 8 -12 16 4 58 23 67 22 69 -15 33 -32 -31 -71 -41
-83 -20 -4 5 20 37 54 70 69 66 106 77 117 34z m-724 -73 c3 -11 -2 -23 -12
-30 -14 -9 -19 -6 -29 14 -6 14 -8 23 -3 20 4 -2 14 -1 22 5 8 5 16 9 16 9 1
0 4 -8 6 -18z m398 -12 c121 -15 120 -15 120 -62 0 -34 -3 -39 -17 -33 -71 29
-107 36 -169 33 -65 -3 -70 -2 -81 22 -8 19 -12 20 -12 8 -1 -10 -8 -18 -17
-18 -10 0 -14 6 -10 15 3 8 1 15 -4 15 -6 0 -10 -10 -10 -21 0 -17 5 -20 25
-17 37 7 30 -3 -21 -34 l-45 -28 2 38 c3 48 24 72 63 72 17 0 38 5 46 10 19
12 27 12 130 0z m-470 -26 c0 -17 -22 -14 -28 4 -2 7 3 12 12 12 9 0 16 -7 16
-16z m644 -27 c21 -17 29 -33 31 -65 2 -23 1 -42 -1 -42 -3 0 -21 12 -40 26
-28 22 -34 33 -34 65 0 45 5 47 44 16z m-451 -28 c-3 -10 -17 -18 -37 -21 -29
-3 -32 -1 -28 19 4 19 10 23 37 21 25 -1 31 -6 28 -19z m282 -4 c47 -8 136
-48 155 -69 7 -10 -5 -6 -31 9 -98 54 -223 69 -298 35 -51 -24 -65 -20 -25 6
27 19 102 33 139 28 11 -2 38 -6 60 -9z m241 -97 c11 -50 23 -78 33 -81 9 -3
24 -8 33 -12 14 -5 17 3 23 52 9 77 14 93 28 90 19 -3 26 -27 26 -89 1 -67 -5
-88 -27 -88 -13 0 -12 3 4 15 18 14 18 15 0 9 -16 -6 -17 -5 -6 17 11 21 9 21
-14 -4 -13 -16 -29 -26 -35 -23 -18 11 -51 -32 -52 -66 0 -28 -4 -24 -23 32
-12 36 -30 80 -40 98 -22 42 -14 76 10 46 9 -10 13 -13 9 -6 -3 6 -3 18 1 24
5 7 7 29 6 48 -2 43 1 36 24 -62z m90 59 c1 -20 -3 -27 -13 -23 -8 4 -20 6
-27 6 -8 0 -12 10 -11 23 3 30 2 29 28 25 16 -2 22 -10 23 -31z m39 5 c-3 -3
-11 0 -18 7 -9 10 -8 11 6 5 10 -3 15 -9 12 -12z m-787 -14 c8 -10 4 -13 -13
-14 -16 -1 -22 2 -18 12 6 17 17 18 31 2z m100 -15 c-4 -22 -22 -20 -26 1 -2
10 3 16 13 16 10 0 15 -7 13 -17z m55 -15 c-10 -11 -19 -15 -21 -8 -5 15 18
41 30 34 5 -3 1 -15 -9 -26z m108 0 l20 -23 -7 24 c-4 16 -3 21 5 17 15 -9 14
-83 -1 -92 -7 -5 -9 0 -6 14 13 48 -61 52 -86 4 -10 -18 -15 -21 -21 -12 -9
15 28 50 52 50 8 0 11 5 8 10 -3 6 -1 10 5 10 6 0 8 5 5 10 -12 19 7 10 26
-12z m106 11 c8 -8 7 -20 -3 -45 -17 -42 -17 -44 1 -44 8 0 14 3 13 8 -4 11
34 57 54 65 13 4 16 2 11 -11 -3 -9 -10 -23 -16 -29 -15 -20 7 -16 36 7 29 23
52 26 44 6 -3 -7 0 -19 6 -25 8 -8 2 -11 -25 -11 -21 0 -46 -9 -62 -21 -15
-12 -38 -22 -50 -23 -31 -1 -23 -16 8 -16 13 0 31 -10 40 -22 l17 -23 -11 23
c-13 27 -5 58 16 66 11 4 12 2 4 -14 -15 -27 -12 -40 8 -41 10 0 12 -3 5 -6
-12 -4 -19 -33 -8 -33 19 0 52 25 48 36 -3 8 0 14 7 14 8 0 10 9 5 27 -5 22
-4 25 8 14 22 -18 30 -60 15 -79 -11 -13 -10 -15 4 -9 18 6 43 -16 34 -32 -3
-5 -17 -8 -31 -6 -27 2 -31 -5 -14 -22 7 -7 9 -23 5 -38 -7 -27 -18 -27 -22 0
-6 39 -30 75 -50 75 -21 0 -21 -2 7 -31 34 -37 38 -57 7 -35 -28 20 -44 21
-28 1 10 -12 9 -15 -4 -15 -13 0 -15 -4 -7 -18 17 -31 21 -72 8 -73 -88 -6
-152 2 -203 25 -31 14 -58 26 -60 26 -2 0 -5 -12 -5 -27 -1 -23 -3 -21 -11 12
-5 22 -10 50 -11 62 -1 15 -6 18 -13 12 -16 -13 -30 60 -14 75 6 6 11 7 10 1
-6 -28 1 -44 15 -39 12 5 13 10 4 20 -9 11 -8 14 2 14 8 0 6 5 -5 13 -17 13
-16 14 13 26 32 14 33 31 1 31 -19 0 -35 26 -20 35 12 7 38 -4 44 -21 3 -8 14
-14 25 -14 12 0 22 -10 28 -27 13 -39 7 -55 -29 -76 -17 -10 -28 -20 -25 -23
3 -3 20 5 37 18 l32 23 39 -45 c21 -25 39 -41 39 -35 0 5 -19 28 -42 52 -45
46 -44 59 10 86 14 6 27 17 29 22 3 10 -82 40 -100 36 -5 -1 -5 4 -1 10 5 9 2
10 -10 6 -10 -4 -15 -3 -11 3 9 15 31 12 46 -6 12 -15 15 -14 31 6 10 12 18
29 18 37 0 41 34 65 57 42z m-317 -9 c0 -5 -2 -10 -4 -10 -3 0 -8 5 -11 10 -3
6 -1 10 4 10 6 0 11 -4 11 -10z m377 4 c-3 -3 -12 -4 -19 -1 -8 3 -5 6 6 6 11
1 17 -2 13 -5z m306 -18 c7 -17 -18 -40 -33 -31 -5 3 -10 15 -10 26 0 23 35
27 43 5z m-641 -21 c0 -5 -5 -11 -11 -13 -6 -2 -11 4 -11 13 0 9 5 15 11 13 6
-2 11 -8 11 -13z m8 -40 c0 -8 -4 -15 -9 -15 -13 0 -22 16 -14 24 11 11 23 6
23 -9z m620 1 c0 -8 -4 -17 -9 -21 -12 -7 -24 12 -16 25 9 15 25 12 25 -4z
m65 -160 c-2 -33 -4 -67 -5 -75 0 -11 -3 -11 -17 0 -17 13 -17 12 -2 -6 11
-14 15 -33 11 -62 -5 -47 -15 -54 -34 -23 -7 11 -18 20 -24 20 -14 0 -26 28
-18 41 3 5 9 7 14 4 4 -3 6 4 3 15 -4 14 1 22 18 29 21 8 22 10 7 16 -10 4
-20 23 -24 43 -4 21 -11 45 -16 55 -5 11 -5 17 2 17 5 0 10 -6 10 -12 0 -7 7
-2 15 10 15 21 17 21 41 6 22 -15 24 -21 19 -78z m-85 33 c0 -5 -4 -9 -10 -9
-5 0 -10 7 -10 16 0 8 5 12 10 9 6 -3 10 -10 10 -16z m-10 -120 c-16 -39 -34
-37 -26 1 3 19 2 29 -4 25 -17 -10 -11 32 6 46 15 12 16 11 11 -11 -5 -19 -3
-18 6 5 l12 29 3 -33 c2 -18 -2 -46 -8 -62z m-613 64 c-4 -3 -3 -11 3 -18 5
-6 7 -28 3 -49 -7 -44 -36 -47 -41 -3 -2 20 0 25 11 22 8 -4 14 1 14 10 0 9
-6 14 -14 11 -7 -3 -13 1 -13 8 0 14 14 23 34 25 5 1 6 -2 3 -6z m-77 -103 c0
-5 -4 -10 -10 -10 -5 0 -10 5 -10 10 0 6 5 10 10 10 6 0 10 -4 10 -10z m723
-41 c40 -33 47 -49 21 -49 -14 0 -14 -2 -3 -16 12 -15 9 -16 -28 -13 -23 3
-39 1 -37 -3 3 -5 21 -8 40 -8 19 0 34 -5 34 -11 0 -5 -4 -8 -9 -5 -5 4 -20 1
-33 -4 -22 -10 -21 -10 5 -5 35 7 42 -10 27 -65 -9 -33 -15 -40 -28 -35 -9 3
-29 9 -44 12 -18 4 -26 11 -25 24 1 11 7 17 14 15 7 -3 15 -1 19 5 4 6 11 5
22 -3 14 -12 14 -10 3 10 -7 13 -31 32 -54 41 l-42 19 27 12 c25 12 26 14 10
26 -9 7 -15 15 -12 18 9 8 50 -5 44 -15 -3 -5 2 -6 11 -3 13 5 10 10 -14 25
-36 22 -37 27 -13 45 23 18 22 18 65 -17z m-626 6 c0 -8 -7 -15 -15 -15 -12 0
-12 3 -2 15 7 8 13 15 15 15 1 0 2 -7 2 -15z m72 -82 c-12 -13 -14 -13 -25 2
-7 9 -15 16 -18 16 -3 -1 -6 2 -5 5 0 4 -4 10 -11 14 -8 5 -8 14 1 33 l12 26
29 -40 c24 -34 27 -43 17 -56z m18 72 c0 -8 -4 -15 -8 -15 -4 0 -9 7 -13 15
-3 9 0 15 8 15 7 0 13 -7 13 -15z m188 4 c11 -17 -1 -21 -15 -4 -8 9 -8 15 -2
15 6 0 14 -5 17 -11z m236 -22 c-6 -6 -11 -20 -11 -30 0 -15 3 -17 13 -8 8 6
17 8 20 5 15 -16 -49 -49 -97 -50 -47 -2 -48 -1 -26 11 14 7 28 11 32 9 5 -3
8 8 8 24 0 23 7 35 33 49 31 19 50 12 28 -10z m-532 -1 c12 -11 21 -25 21 -32
0 -7 16 -21 36 -30 32 -16 37 -16 45 -2 8 14 15 13 64 -3 31 -10 72 -19 93
-20 36 -1 163 41 191 64 11 9 13 7 10 -8 -4 -20 -84 -59 -139 -68 -14 -2 -36
-9 -50 -16 -23 -11 -23 -11 -2 -7 14 3 22 -1 22 -10 0 -8 4 -14 10 -14 5 0 6
8 3 17 -5 13 -2 15 11 10 10 -4 15 -3 11 3 -4 6 11 10 37 10 31 0 39 3 28 10
-11 7 -3 8 25 6 22 -2 39 -8 37 -12 -4 -13 -54 -25 -79 -19 -12 3 -25 1 -28
-5 -4 -6 7 -10 25 -10 38 0 31 -19 -8 -21 -24 -2 -24 -2 -4 -6 12 -2 22 -11
22 -19 0 -8 -10 -15 -22 -15 -17 -1 -19 -2 -5 -6 19 -5 23 -28 5 -39 -25 -15
-228 6 -228 24 1 26 19 33 56 24 80 -20 100 -23 84 -12 -8 5 -25 10 -37 10
-13 0 -23 5 -23 11 0 12 71 3 80 -11 3 -4 14 -4 25 0 l20 7 -20 6 c-11 3 -54
11 -95 18 -52 9 -79 19 -89 32 -8 11 -21 17 -32 14 -11 -3 -19 -1 -19 5 0 5
-5 6 -10 3 -6 -4 -20 4 -31 17 -11 13 -18 16 -14 8 4 -8 -1 -6 -9 4 -16 19
-16 19 -16 -2 0 -22 -3 -23 -77 -37 -21 -4 -24 -3 -13 5 8 5 24 10 35 10 51 1
57 42 14 91 -11 13 -17 17 -13 9 7 -13 5 -13 -9 -1 -9 7 -15 17 -12 21 8 13
53 5 74 -14z m-78 -16 c10 -6 19 -16 19 -23 0 -7 -4 -6 -10 3 -7 12 -10 12
-10 1 0 -9 -8 -11 -24 -7 -23 6 -63 -23 -51 -36 4 -3 -8 -3 -25 1 -37 7 -36
26 2 25 15 0 29 5 32 13 3 7 -1 13 -10 13 -8 0 -12 5 -9 10 8 13 61 13 86 0z
m279 0 c-14 -4 -19 -8 -11 -9 8 -1 12 -3 10 -6 -3 -2 -16 -1 -29 2 -22 6 -23
7 -4 14 10 4 28 7 39 7 16 0 15 -2 -5 -8z m47 -16 c-3 -3 -12 -4 -19 -1 -8 3
-5 6 6 6 11 1 17 -2 13 -5z m86 -1 c-7 -2 -19 -2 -25 0 -7 3 -2 5 12 5 14 0
19 -2 13 -5z m236 -64 c31 -11 38 -33 10 -35 -8 0 -27 -2 -42 -2 -16 -1 -25
-6 -22 -12 3 -5 0 -10 -7 -10 -9 0 -9 -3 2 -10 12 -8 11 -10 -5 -10 -12 0 -26
-5 -33 -12 -16 -16 -16 4 1 22 6 8 0 5 -14 -8 -14 -12 -36 -22 -48 -22 -21 0
-22 2 -10 17 10 11 10 14 2 9 -7 -4 -13 -4 -13 1 1 15 25 38 45 42 20 3 20 3
0 -20 -11 -13 3 -4 30 19 55 46 58 47 104 31z m-522 -21 c20 -7 33 -19 33 -30
0 -10 10 -20 25 -24 28 -7 31 -16 12 -32 -9 -7 -33 -1 -87 24 l-75 35 25 19
c30 23 26 23 67 8z m77 -16 c2 -4 1 -14 -3 -21 -6 -9 -11 -10 -15 -2 -4 6 -1
11 6 11 9 0 9 3 -2 10 -9 6 -10 10 -3 10 6 0 14 -4 17 -8z m76 -42 c0 -5 -6
-10 -14 -10 -8 0 -18 5 -21 10 -3 6 3 10 14 10 12 0 21 -4 21 -10z m396 -29
c0 -13 -9 -21 -29 -25 -17 -3 -27 -11 -25 -18 5 -13 85 -31 98 -23 10 6 0 55
-12 55 -6 0 -7 -7 -4 -16 3 -8 2 -12 -4 -9 -6 3 -10 15 -10 26 0 16 3 18 19
10 24 -13 37 -61 19 -72 -15 -9 -95 -1 -121 13 -25 13 -31 5 -17 -21 6 -12 8
-21 6 -21 -3 0 -13 14 -22 31 -8 17 -11 29 -6 25 5 -3 10 6 10 20 0 32 16 44
62 44 29 0 36 -4 36 -19z m74 -95 c9 -2 5 -7 -13 -14 -20 -9 -40 -9 -78 0 -31
7 -45 14 -35 18 15 5 92 3 126 -4z"/>
<path d="M477 953 c-4 -3 -7 -11 -7 -17 0 -6 5 -5 12 2 6 6 9 14 7 17 -3 3 -9
2 -12 -2z"/>
<path d="M740 896 c0 -8 9 -20 21 -26 18 -10 20 -9 17 12 -3 26 -38 39 -38 14z"/>
<path d="M270 890 c0 -5 7 -10 15 -10 8 0 15 5 15 10 0 6 -7 10 -15 10 -8 0
-15 -4 -15 -10z"/>
<path d="M851 664 c0 -11 3 -14 6 -6 3 7 2 16 -1 19 -3 4 -6 -2 -5 -13z"/>
<path d="M900 860 c0 -5 7 -10 15 -10 8 0 15 5 15 10 0 6 -7 10 -15 10 -8 0
-15 -4 -15 -10z"/>
<path d="M688 623 c7 -3 16 -2 19 1 4 3 -2 6 -13 5 -11 0 -14 -3 -6 -6z"/>
<path d="M876 227 c3 -10 9 -15 12 -12 3 3 0 11 -7 18 -10 9 -11 8 -5 -6z"/>
<path d="M305 391 c-3 -5 -1 -12 5 -16 6 -4 7 -11 4 -17 -4 -6 -2 -8 4 -4 6 3
13 2 17 -4 3 -5 12 -10 18 -10 7 0 0 11 -15 24 -15 13 -24 27 -21 30 4 3 4 6
0 6 -3 0 -8 -4 -12 -9z"/>
<path d="M390 300 c8 -5 20 -10 25 -10 6 0 3 5 -5 10 -8 5 -19 10 -25 10 -5 0
-3 -5 5 -10z"/>
<path d="M468 273 c6 -2 18 -2 25 0 6 3 1 5 -13 5 -14 0 -19 -2 -12 -5z"/>
<path d="M806 181 c-4 -7 -5 -15 -2 -18 9 -9 19 4 14 18 -4 11 -6 11 -12 0z"/>
<path d="M830 180 c0 -5 5 -10 10 -10 6 0 10 5 10 10 0 6 -4 10 -10 10 -5 0
-10 -4 -10 -10z"/>
</g>
</svg>
